<?xml version="1.0" encoding="UTF-8" ?>
<!DOCTYPE svg PUBLIC "-//W3C//DTD SVG 1.1//EN" "http://www.w3.org/Graphics/SVG/1.1/DTD/svg11.dtd">
<svg width="881pt" height="881pt" viewBox="0 0 881 881" version="1.1" xmlns="http://www.w3.org/2000/svg">
<g id="#ff85a9ff">
<path fill="#ff85a9" opacity="1.00" d=" M 367.82 114.10 C 397.43 103.46 428.61 97.63 459.97 95.68 C 497.33 93.80 535.26 96.95 571.07 108.17 C 609.38 120.44 645.25 140.85 674.50 168.56 C 686.89 180.45 698.32 193.35 708.65 207.07 C 723.26 226.44 734.66 248.12 743.21 270.79 C 744.64 274.83 746.40 278.78 747.23 283.00 C 747.37 279.73 748.97 276.87 750.86 274.29 C 753.30 276.83 754.55 280.21 754.36 283.74 C 755.27 280.10 757.76 277.28 760.17 274.55 C 761.10 280.33 759.40 285.98 756.63 291.00 C 759.74 291.46 762.79 292.23 765.85 292.94 C 761.99 296.16 757.26 298.36 752.15 298.31 C 758.33 318.96 761.73 340.43 761.57 362.01 C 761.77 419.17 743.10 477.08 706.17 521.12 C 705.64 521.96 705.18 522.84 704.79 523.76 L 704.78 523.77 C 699.23 527.59 695.36 533.26 690.43 537.79 C 676.09 550.77 660.36 562.31 643.04 571.01 C 602.64 592.46 555.57 601.64 510.14 595.47 C 513.22 600.17 515.47 605.39 516.46 610.93 C 512.00 609.81 508.77 606.40 505.92 603.01 C 505.55 605.09 505.06 607.15 504.55 609.20 C 501.42 606.00 499.47 601.79 499.46 597.27 C 497.19 601.42 492.86 603.45 489.07 605.91 C 491.48 601.72 492.38 596.77 495.60 592.99 C 423.06 579.48 363.41 516.96 351.11 444.53 C 344.92 408.68 349.80 370.55 366.77 338.20 C 363.05 339.16 359.45 340.47 355.82 341.68 C 354.36 342.42 352.59 340.28 354.04 339.14 C 356.55 336.21 358.91 333.11 360.17 329.40 C 356.12 328.69 352.01 328.21 348.09 326.98 C 346.44 326.60 345.96 324.34 347.62 323.59 C 352.05 322.69 356.68 322.25 360.74 320.09 C 354.94 313.33 349.16 305.42 348.66 296.23 C 344.35 294.75 339.72 292.93 337.23 288.86 C 338.36 287.72 339.53 286.62 340.74 285.57 C 341.52 285.91 343.06 286.59 343.83 286.93 C 339.98 282.80 338.09 277.43 335.28 272.64 C 335.94 272.51 337.28 272.25 337.95 272.12 C 340.77 274.32 343.67 276.46 347.00 277.85 C 344.79 275.08 341.96 272.67 340.93 269.15 C 340.18 266.45 337.35 265.01 336.83 262.21 C 335.56 257.77 334.28 253.25 334.24 248.60 C 334.84 248.57 336.04 248.50 336.64 248.47 C 343.13 258.74 355.32 264.06 367.03 265.48 C 379.79 266.29 392.45 268.14 405.10 269.91 C 411.72 271.04 417.28 275.06 422.31 279.28 C 441.53 267.84 463.06 260.34 485.28 257.67 C 483.28 254.45 480.37 251.11 480.71 247.10 C 483.54 245.79 486.48 247.60 488.34 249.69 C 488.53 246.08 488.76 242.40 487.38 238.97 C 493.24 239.95 495.69 245.90 497.68 250.77 C 498.23 248.32 499.88 246.48 501.96 245.16 C 506.42 247.60 505.73 253.43 503.46 257.18 C 528.16 257.77 552.27 266.40 572.68 280.15 C 578.21 273.17 587.17 269.86 595.83 269.25 C 602.01 268.75 607.94 266.85 614.03 265.82 C 621.62 264.81 627.30 258.99 632.14 253.54 C 635.17 252.55 635.34 256.63 634.23 258.46 C 631.21 264.00 634.25 270.94 630.04 276.07 C 631.43 275.53 632.83 275.01 634.25 274.52 C 634.50 275.13 634.99 276.37 635.24 276.98 C 633.02 280.42 630.56 283.72 628.10 287.01 C 629.37 288.07 630.64 289.51 629.40 291.15 C 626.13 295.76 624.26 301.63 619.18 304.71 C 620.68 305.51 622.32 306.15 623.63 307.29 C 624.32 308.44 623.91 310.06 622.87 310.88 C 620.25 313.38 616.83 314.79 613.49 316.05 C 614.97 317.45 618.46 318.32 617.23 320.97 C 615.70 322.45 610.98 322.74 612.43 325.59 C 618.03 336.99 621.36 349.43 622.14 362.10 C 628.81 397.52 611.44 434.95 582.13 455.16 C 565.97 466.47 545.75 472.44 526.05 469.78 C 521.72 469.05 517.06 468.73 513.22 466.45 C 511.75 466.49 510.27 466.54 508.81 466.61 C 511.10 466.38 513.37 466.03 515.65 465.70 C 517.11 466.36 518.82 466.35 520.16 465.38 C 536.94 462.42 553.70 456.03 566.34 444.28 C 569.43 441.43 572.10 438.19 574.85 435.02 C 576.98 436.71 579.16 439.02 582.14 438.45 C 581.82 436.35 581.51 434.26 581.20 432.18 C 583.53 431.38 585.82 430.42 588.00 429.26 C 586.36 428.30 584.73 427.38 583.09 426.46 C 584.65 424.79 586.22 423.13 587.82 421.49 C 586.21 421.19 584.61 420.89 583.03 420.59 C 585.38 412.57 587.99 404.45 587.83 395.98 C 588.29 386.52 586.68 377.12 583.98 368.08 C 583.45 366.40 582.54 364.90 581.66 363.40 C 595.01 353.36 596.76 331.87 585.12 319.86 C 574.84 307.90 554.93 306.82 543.31 317.43 C 530.07 310.44 515.06 307.31 500.13 307.97 C 500.68 305.36 500.96 302.70 501.05 300.04 C 499.51 300.60 497.98 301.17 496.45 301.75 C 495.37 300.44 494.30 299.13 493.22 297.83 C 492.26 299.34 491.31 300.86 490.37 302.39 C 489.07 302.52 487.77 302.65 486.48 302.79 C 486.95 305.03 487.45 307.28 487.99 309.51 C 476.84 311.97 465.57 314.68 455.49 320.23 C 445.30 308.06 425.22 306.63 413.48 317.33 C 403.09 325.90 400.05 341.78 406.34 353.64 C 408.05 357.07 410.57 360.04 413.39 362.63 C 407.89 373.07 403.86 384.32 402.12 396.02 C 400.42 405.20 400.73 414.56 400.85 423.85 C 396.02 425.46 391.03 426.73 386.59 429.31 C 389.30 430.98 392.51 431.08 395.60 431.19 C 395.44 432.84 395.29 434.48 395.15 436.14 C 397.62 435.42 399.99 434.42 402.24 433.17 C 407.13 463.74 423.43 492.05 446.73 512.31 C 459.69 523.61 474.68 532.77 491.13 537.97 C 519.35 547.01 549.98 546.98 578.67 540.13 C 577.56 542.75 576.87 545.52 576.68 548.37 C 578.44 547.31 580.17 546.20 581.89 545.07 C 582.02 546.37 582.15 547.68 582.30 549.00 C 583.18 547.90 584.05 546.78 585.05 545.78 C 586.52 545.91 587.86 546.66 589.25 547.15 C 591.29 543.97 589.71 540.54 588.07 537.60 C 604.89 532.05 621.49 524.91 635.69 514.18 C 663.65 496.11 683.98 467.73 695.85 436.89 C 707.36 406.80 711.49 373.98 707.92 341.96 C 703.20 308.34 691.65 275.45 672.99 246.99 C 662.05 230.68 648.95 215.89 634.48 202.64 C 605.82 177.37 570.37 159.73 532.83 152.55 C 513.01 148.66 492.78 147.02 472.59 147.66 C 474.35 153.52 475.46 159.68 474.50 165.80 C 470.61 164.17 468.48 160.48 466.83 156.83 C 466.01 161.31 463.32 164.96 461.41 168.98 C 460.87 165.30 458.78 161.90 459.59 158.04 C 458.18 159.92 456.60 161.70 455.65 163.88 C 455.56 158.34 456.14 152.41 460.16 148.18 C 411.74 151.70 363.72 166.90 323.79 194.88 C 293.27 214.59 267.20 240.94 247.19 271.23 C 223.97 306.29 208.42 346.39 201.76 387.89 C 197.23 415.32 198.42 443.25 199.60 470.90 C 200.75 467.08 203.00 462.09 207.37 461.52 L 206.21 462.25 C 206.43 463.34 206.86 465.52 207.07 466.62 C 209.41 466.36 211.26 464.18 213.37 463.09 C 213.64 462.49 214.18 461.30 214.45 460.71 C 214.85 466.12 211.97 470.92 207.82 474.17 C 211.76 475.77 215.54 477.73 219.48 479.29 C 219.47 479.56 219.44 480.09 219.43 480.36 L 218.55 479.06 C 213.11 481.77 206.91 482.92 200.95 481.39 C 204.23 512.41 212.26 542.83 223.47 571.91 C 232.09 594.02 243.02 615.27 256.38 634.90 C 277.34 664.63 299.76 693.53 325.95 718.86 C 363.32 755.59 408.60 783.66 456.89 803.66 C 462.48 801.50 465.98 796.17 471.67 794.19 C 471.57 795.60 471.47 797.01 471.36 798.44 C 474.80 797.39 478.45 796.27 482.04 797.37 C 481.47 802.28 476.87 805.02 472.64 806.57 C 476.88 806.76 482.04 806.14 485.12 809.73 C 482.77 810.99 480.30 812.00 477.75 812.76 C 483.50 813.86 488.77 816.57 494.27 818.52 C 465.91 817.42 437.65 813.37 410.12 806.48 C 371.49 796.92 334.60 780.13 302.45 756.60 C 274.15 736.11 249.58 710.82 228.06 683.38 C 225.53 687.39 222.50 691.67 217.56 692.70 C 217.96 689.57 219.17 686.61 221.06 684.08 C 218.78 684.41 216.53 685.03 214.22 685.06 C 212.25 685.10 210.21 683.85 208.34 684.88 C 210.79 682.28 214.49 680.99 217.84 679.87 C 215.07 679.14 212.42 678.01 210.02 676.44 C 214.32 673.77 219.70 676.03 223.90 677.88 C 213.33 663.89 203.02 649.58 194.86 634.02 C 174.24 595.62 159.88 553.86 152.29 510.96 C 147.43 484.93 146.15 458.40 145.97 431.95 C 145.16 372.60 162.52 313.94 191.06 262.21 C 185.50 260.98 178.16 260.70 175.37 254.84 C 177.41 252.30 180.78 252.01 183.62 253.31 C 181.95 250.90 181.53 247.98 181.70 245.11 C 183.94 245.95 186.26 246.83 187.83 248.74 C 187.56 245.75 187.89 242.75 188.93 239.92 C 193.99 243.79 195.01 250.86 194.65 256.82 C 195.04 255.92 195.47 255.05 195.95 254.20 C 215.65 221.39 240.86 191.72 270.98 168.01 C 300.43 145.52 332.64 126.15 367.82 114.10 M 618.73 271.71 C 606.77 275.15 593.04 273.92 582.66 281.74 C 579.98 283.68 576.62 287.57 579.70 290.63 C 585.31 288.62 590.66 285.07 596.86 285.51 C 596.16 288.24 592.76 288.36 590.75 289.80 C 588.76 290.94 585.58 293.15 587.21 295.76 C 591.99 295.83 595.84 292.39 600.29 291.10 C 598.72 293.96 596.84 296.63 594.94 299.27 C 595.28 299.57 595.95 300.16 596.29 300.46 C 598.94 299.90 601.56 299.02 604.32 299.12 C 602.58 301.70 598.59 301.83 597.47 305.00 C 598.49 307.85 600.72 310.28 603.44 311.61 C 604.85 312.12 605.93 310.67 606.98 309.97 C 615.68 302.43 618.94 290.64 620.70 279.69 C 622.34 275.67 627.58 273.07 626.67 268.18 C 623.59 268.24 621.61 271.03 618.73 271.71 M 349.87 270.03 C 351.03 273.10 354.47 273.45 356.81 275.17 C 359.46 281.76 360.58 288.87 362.48 295.70 C 364.02 300.99 364.13 307.48 368.95 311.07 C 372.01 314.06 376.57 314.23 380.07 316.53 C 382.28 313.28 384.70 310.15 387.70 307.58 C 386.59 303.53 383.48 300.77 380.71 297.85 C 383.18 298.19 385.57 298.92 388.04 299.29 C 391.75 298.94 395.29 297.64 398.64 296.06 C 396.36 293.01 391.78 293.24 389.72 290.17 C 395.67 290.63 402.72 290.32 406.64 285.09 C 397.80 276.86 385.18 276.58 374.07 273.79 C 368.00 272.11 361.50 272.64 355.59 270.34 C 353.73 269.63 351.72 268.87 349.87 270.03 Z" />
</g>
<g id="#e94475ff">
<path fill="#e94475" opacity="1.00" d=" M 618.73 271.71 C 621.61 271.03 623.59 268.24 626.67 268.18 C 627.58 273.07 622.34 275.67 620.70 279.69 C 618.94 290.64 615.68 302.43 606.98 309.97 C 605.93 310.67 604.85 312.12 603.44 311.61 C 600.72 310.28 598.49 307.85 597.47 305.00 C 598.59 301.83 602.58 301.70 604.32 299.12 C 601.56 299.02 598.94 299.90 596.29 300.46 C 595.95 300.16 595.28 299.57 594.94 299.27 C 596.84 296.63 598.72 293.96 600.29 291.10 C 595.84 292.39 591.99 295.83 587.21 295.76 C 585.58 293.15 588.76 290.94 590.75 289.80 C 592.76 288.36 596.16 288.24 596.86 285.51 C 590.66 285.07 585.31 288.62 579.70 290.63 C 576.62 287.57 579.98 283.68 582.66 281.74 C 593.04 273.92 606.77 275.15 618.73 271.71 Z" />
<path fill="#e94475" opacity="1.00" d=" M 349.87 270.03 C 351.72 268.87 353.73 269.63 355.59 270.34 C 361.50 272.64 368.00 272.11 374.07 273.79 C 385.18 276.58 397.80 276.86 406.64 285.09 C 402.72 290.32 395.67 290.63 389.72 290.17 C 391.78 293.24 396.36 293.01 398.64 296.06 C 395.29 297.64 391.75 298.94 388.04 299.29 C 385.57 298.92 383.18 298.19 380.71 297.85 C 383.48 300.77 386.59 303.53 387.70 307.58 C 384.70 310.15 382.28 313.28 380.07 316.53 C 376.57 314.23 372.01 314.06 368.95 311.07 C 364.13 307.48 364.02 300.99 362.48 295.70 C 360.58 288.87 359.46 281.76 356.81 275.17 C 354.47 273.45 351.03 273.10 349.87 270.03 Z" />
</g>
<g id="#ffc0d3ff">
<path fill="#ffc0d3" opacity="1.00" d=" M 493.22 297.83 C 494.30 299.13 495.37 300.44 496.45 301.75 C 497.98 301.17 499.51 300.60 501.05 300.04 C 500.96 302.70 500.68 305.36 500.13 307.97 C 515.06 307.31 530.07 310.44 543.31 317.43 C 536.06 323.72 532.14 333.55 533.24 343.11 C 534.28 355.05 543.35 365.73 554.92 368.83 C 564.03 371.42 574.30 369.38 581.66 363.40 C 582.54 364.90 583.45 366.40 583.98 368.08 C 586.68 377.12 588.29 386.52 587.83 395.98 C 587.99 404.45 585.38 412.57 583.03 420.59 C 584.61 420.89 586.21 421.19 587.82 421.49 C 586.22 423.13 584.65 424.79 583.09 426.46 C 584.73 427.38 586.36 428.30 588.00 429.26 C 585.82 430.42 583.53 431.38 581.20 432.18 C 581.51 434.26 581.82 436.35 582.14 438.45 C 579.16 439.02 576.98 436.71 574.85 435.02 C 572.10 438.19 569.43 441.43 566.34 444.28 C 553.70 456.03 536.94 462.42 520.16 465.38 C 518.70 464.59 516.91 464.52 515.65 465.70 C 513.37 466.03 511.10 466.38 508.81 466.61 C 504.21 466.70 499.59 467.87 495.01 466.96 C 492.30 466.52 489.56 466.39 486.85 466.05 C 481.20 465.18 475.47 464.90 469.78 464.41 C 465.44 463.99 460.78 462.23 456.72 464.69 C 457.49 465.05 458.26 465.42 459.04 465.80 C 460.66 472.59 465.72 477.79 470.02 483.02 C 478.44 490.89 488.53 496.64 497.84 503.35 C 511.25 510.96 526.20 515.32 541.09 519.01 C 539.21 515.40 535.93 511.33 538.45 507.21 C 541.32 506.81 543.84 508.08 545.01 510.76 C 545.41 508.93 546.20 507.25 547.33 505.77 C 547.33 505.30 547.33 504.35 547.33 503.88 C 549.15 507.07 551.69 509.99 551.56 513.93 C 552.99 511.92 554.62 510.08 556.44 508.41 C 559.77 513.69 554.28 518.50 550.22 521.14 C 565.38 523.12 580.72 521.88 595.96 522.23 C 609.50 521.37 622.45 516.83 635.69 514.18 C 621.49 524.91 604.89 532.05 588.07 537.60 C 589.71 540.54 591.29 543.97 589.25 547.15 C 587.86 546.66 586.52 545.91 585.05 545.78 C 584.05 546.78 583.18 547.90 582.30 549.00 C 582.15 547.68 582.02 546.37 581.89 545.07 C 580.17 546.20 578.44 547.31 576.68 548.37 C 576.87 545.52 577.56 542.75 578.67 540.13 C 549.98 546.98 519.35 547.01 491.13 537.97 C 474.68 532.77 459.69 523.61 446.73 512.31 C 423.43 492.05 407.13 463.74 402.24 433.17 C 399.99 434.42 397.62 435.42 395.15 436.14 C 395.29 434.48 395.44 432.84 395.60 431.19 C 392.51 431.08 389.30 430.98 386.59 429.31 C 391.03 426.73 396.02 425.46 400.85 423.85 C 400.73 414.56 400.42 405.20 402.12 396.02 C 403.86 384.32 407.89 373.07 413.39 362.63 C 424.65 372.84 443.72 372.20 454.18 361.12 C 465.27 350.60 465.81 331.46 455.49 320.23 C 465.57 314.68 476.84 311.97 487.99 309.51 C 487.45 307.28 486.95 305.03 486.48 302.79 C 487.77 302.65 489.07 302.52 490.37 302.39 C 491.31 300.86 492.26 299.34 493.22 297.83 M 516.05 349.97 C 516.40 353.85 519.04 357.62 517.41 361.57 C 516.04 366.32 508.98 366.14 506.24 362.74 C 503.91 360.44 504.07 356.97 502.84 354.15 C 501.15 351.12 495.72 351.66 494.95 355.14 C 494.41 358.65 493.30 362.21 490.74 364.79 C 488.43 366.50 485.24 367.39 482.46 366.41 C 480.15 364.31 479.81 360.84 480.00 357.90 C 479.99 355.08 483.43 352.95 482.15 350.05 C 481.36 347.05 477.23 346.09 474.99 348.05 C 471.75 350.64 471.04 355.11 470.95 359.01 C 470.79 364.49 472.71 370.48 477.34 373.76 C 484.43 378.16 494.71 375.27 499.34 368.55 C 505.09 375.62 517.21 376.26 523.31 369.35 C 528.43 362.97 527.51 353.97 524.04 347.07 C 521.56 343.96 515.83 345.92 516.05 349.97 Z" />
<path fill="#ffc0d3" opacity="1.00" d=" M 690.43 537.79 C 695.36 533.26 699.23 527.59 704.78 523.77 C 703.01 530.61 697.19 535.99 690.43 537.79 Z" />
</g>
<g id="#9c173eff">
<path fill="#9c173e" opacity="1.00" d=" M 413.48 317.33 C 425.22 306.63 445.30 308.06 455.49 320.23 C 465.81 331.46 465.27 350.60 454.18 361.12 C 443.72 372.20 424.65 372.84 413.39 362.63 C 410.57 360.04 408.05 357.07 406.34 353.64 C 400.05 341.78 403.09 325.90 413.48 317.33 M 428.44 319.59 C 420.21 321.33 413.47 328.49 412.34 336.84 C 411.14 344.25 414.30 352.20 420.38 356.64 C 425.39 360.41 432.10 361.88 438.20 360.25 C 445.16 358.53 451.00 352.95 453.01 346.07 C 455.42 338.40 452.89 329.46 446.75 324.25 C 441.85 319.88 434.83 318.15 428.44 319.59 Z" />
<path fill="#9c173e" opacity="1.00" d=" M 543.31 317.43 C 554.93 306.82 574.84 307.90 585.12 319.86 C 596.76 331.87 595.01 353.36 581.66 363.40 C 574.30 369.38 564.03 371.42 554.92 368.83 C 543.35 365.73 534.28 355.05 533.24 343.11 C 532.14 333.55 536.06 323.72 543.31 317.43 M 558.42 319.60 C 550.17 321.34 543.44 328.54 542.33 336.90 C 541.15 344.30 544.34 352.19 550.36 356.65 C 555.80 360.89 563.42 362.03 569.90 359.74 C 577.41 357.21 583.11 350.04 583.79 342.13 C 584.60 335.01 581.39 327.61 575.63 323.34 C 570.83 319.61 564.33 318.27 558.42 319.60 Z" />
<path fill="#9c173e" opacity="1.00" d=" M 516.05 349.97 C 515.83 345.92 521.56 343.96 524.04 347.07 C 527.51 353.97 528.43 362.97 523.31 369.35 C 517.21 376.26 505.09 375.62 499.34 368.55 C 494.71 375.27 484.43 378.16 477.34 373.76 C 472.71 370.48 470.79 364.49 470.95 359.01 C 471.04 355.11 471.75 350.64 474.99 348.05 C 477.23 346.09 481.36 347.05 482.15 350.05 C 483.43 352.95 479.99 355.08 480.00 357.90 C 479.81 360.84 480.15 364.31 482.46 366.41 C 485.24 367.39 488.43 366.50 490.74 364.79 C 493.30 362.21 494.41 358.65 494.95 355.14 C 495.72 351.66 501.15 351.12 502.84 354.15 C 504.07 356.97 503.91 360.44 506.24 362.74 C 508.98 366.14 516.04 366.32 517.41 361.57 C 519.04 357.62 516.40 353.85 516.05 349.97 Z" />
</g>
<g id="#ffe5edff">
<path fill="#ffe5ed" opacity="1.00" d=" M 428.44 319.59 C 434.83 318.15 441.85 319.88 446.75 324.25 C 452.89 329.46 455.42 338.40 453.01 346.07 C 451.00 352.95 445.16 358.53 438.20 360.25 C 432.10 361.88 425.39 360.41 420.38 356.64 C 414.30 352.20 411.14 344.25 412.34 336.84 C 413.47 328.49 420.21 321.33 428.44 319.59 Z" />
<path fill="#ffe5ed" opacity="1.00" d=" M 558.42 319.60 C 564.33 318.27 570.83 319.61 575.63 323.34 C 581.39 327.61 584.60 335.01 583.79 342.13 C 583.11 350.04 577.41 357.21 569.90 359.74 C 563.42 362.03 555.80 360.89 550.36 356.65 C 544.34 352.19 541.15 344.30 542.33 336.90 C 543.44 328.54 550.17 321.34 558.42 319.60 Z" />
</g>
<g id="#c6879bc7">
<path fill="#c6879b" opacity="0.78" d=" M 515.65 465.70 C 516.91 464.52 518.70 464.59 520.16 465.38 C 518.82 466.35 517.11 466.36 515.65 465.70 Z" />
</g>
</svg>
